HIERARCHY
ROOT Hips
{
    OFFSET 0.000000 0.000000 0.000000
    CHANNELS 6 Xposition Yposition Zposition Zrotation Xrotation Yrotation
    JOINT Spine
    {
        OFFSET -0.000000 0.081343 0.000000
        CHANNELS 3 Zrotation Xrotation Yrotation
        JOINT Spine1
        {
            OFFSET -0.000000 0.243280 0.000000
            CHANNELS 3 Zrotation Xrotation Yrotation
            JOINT Neck
            {
                OFFSET -0.000000 0.242281 0.022026
                CHANNELS 3 Zrotation Xrotation Yrotation
                JOINT Head
                {
                    OFFSET -0.000000 0.149025 -0.021289
                    CHANNELS 3 Zrotation Xrotation Yrotation
                    End Site
                    {
                        OFFSET -0.000000 0.198396 0.000000
                    }
                }
            }
            JOINT LeftShoulder
            {
                OFFSET 0.039707 0.224479 -0.002125
                CHANNELS 3 Zrotation Xrotation Yrotation
                JOINT LeftArm
                {
                    OFFSET 0.116942 0.000000 0.000000
                    CHANNELS 3 Zrotation Xrotation Yrotation
                    JOINT LeftForeArm
                    {
                        OFFSET 0.282002 0.000000 0.000000
                        CHANNELS 3 Zrotation Xrotation Yrotation
                        JOINT LeftHand
                        {
                            OFFSET 0.358743 0.000000 0.000000
                            CHANNELS 3 Zrotation Xrotation Yrotation
                            End Site
                            {
                                OFFSET 0.148797 0.000000 0.000000
                            }
                        }
                    }
                }
            }
            JOINT RightShoulder
            {
                OFFSET -0.039404 0.224479 -0.002125
                CHANNELS 3 Zrotation Xrotation Yrotation
                JOINT RightArm
                {
                    OFFSET -0.116942 0.000000 0.000000
                    CHANNELS 3 Zrotation Xrotation Yrotation
                    JOINT RightForeArm
                    {
                        OFFSET -0.282002 0.000000 0.000000
                        CHANNELS 3 Zrotation Xrotation Yrotation
                        JOINT RightHand
                        {
                            OFFSET -0.358743 0.000000 0.000000
                            CHANNELS 3 Zrotation Xrotation Yrotation
                            End Site
                            {
                                OFFSET -0.148797 0.000000 0.000000
                            }
                        }
                    }
                }
            }
        }
    }
    JOINT LeftUpLeg
    {
        OFFSET 0.099198 0.000000 0.000000
        CHANNELS 3 Zrotation Xrotation Yrotation
        JOINT LeftLeg
        {
            OFFSET -0.000000 -0.332973 0.000000
            CHANNELS 3 Zrotation Xrotation Yrotation
            JOINT LeftFoot
            {
                OFFSET -0.000000 -0.491254 0.000000
                CHANNELS 3 Zrotation Xrotation Yrotation
                JOINT LeftToeBase
                {
                    OFFSET -0.000000 -0.064479 0.148797
                    CHANNELS 3 Zrotation Xrotation Yrotation
                    End Site
                    {
                        OFFSET -0.000000 0.000000 0.039679
                    }
                }
            }
        }
    }
    JOINT RightUpLeg
    {
        OFFSET -0.099198 0.000000 0.000000
        CHANNELS 3 Zrotation Xrotation Yrotation
        JOINT RightLeg
        {
            OFFSET -0.000000 -0.332973 0.000000
            CHANNELS 3 Zrotation Xrotation Yrotation
            JOINT RightFoot
            {
                OFFSET -0.000000 -0.491254 0.000000
                CHANNELS 3 Zrotation Xrotation Yrotation
                JOINT RightToeBase
                {
                    OFFSET -0.000000 -0.064479 0.148797
                    CHANNELS 3 Zrotation Xrotation Yrotation
                    End Site
                    {
                        OFFSET -0.000000 0.000000 0.039679
                    }
                }
            }
        }
    }
}
MOTION
Frames:    13
Frame Time:    0.010000
-0.429570    0.909083    0.348214    -8.781761    23.826660    -133.830811    29.294140    36.790802    -36.647251    1.011718    -28.769548    -8.556910    -1.062487    -18.666361    -39.523949    -54.794044    9.006636    -42.578659    0.000000    0.000000    0.000000    -57.320511    44.725510    41.262451    -21.514673    72.080200    47.093597    -72.465126    49.725716    64.912201    0.000000    0.000000    0.000000    0.000000    0.000000    0.000000    0.000000    0.000000    0.000000    0.000000    0.000000    0.000000    -5.899294    15.887938    0.823922    3.877760    39.944221    -132.182755    0.000000    0.000000    0.000000    0.000000    0.000000    0.000000    -3.075728    14.766543    0.398648    103.112869    28.338633    168.032791    0.000000    0.000000    0.000000    0.000000    0.000000    0.000000    
-0.433525    0.908508    0.346082    -8.905800    23.956156    -133.325409    28.903835    36.947380    -36.522491    1.822175    -28.973701    -8.334602    -1.180330    -18.789045    -39.632580    -55.347618    9.225620    -42.552315    0.000000    0.000000    0.000000    -57.003769    43.759743    40.854069    -23.342640    72.624908    48.873516    -74.061172    49.503567    65.909073    0.000000    0.000000    0.000000    0.000000    0.000000    0.000000    0.000000    0.000000    0.000000    0.000000    0.000000    0.000000    -5.899294    15.887938    0.823922    3.877760    39.944221    -132.182755    0.000000    0.000000    0.000000    0.000000    0.000000    0.000000    -3.075728    14.766543    0.398648    103.112869    28.338633    168.032791    0.000000    0.000000    0.000000    0.000000    0.000000    0.000000    
-0.375169    0.884306    0.460471    2.513054    -3.389997    6.448582    -0.688362    1.048469    1.542323    -2.654345    0.793226    1.554409    -1.180330    -18.789045    -39.632580    -55.347618    9.225620    -42.552315    6.104273    5.572088    4.058399    -21.578674    4.807703    -15.192266    5.049964    18.842695    -6.539245    11.133260    19.031401    -0.914931    -9.778809    1.361917    8.643377    18.377493    -8.733039    1.885125    1.257546    13.027493    -2.030072    18.226852    13.013484    -0.228555    2.961782    -0.989298    -12.595654    -1.344383    7.977223    -7.951880    -3.566501    -12.243118    2.436672    0.000000    0.000000    0.000000    -4.169951    -3.998935    16.674192    1.551325    22.697443    1.970149    -0.857186    -14.481955    -4.473320    0.000000    0.000000    0.000000    
-0.377964    0.883745    0.456504    2.690047    -2.997773    6.704101    -0.969757    1.032012    2.631684    -3.352541    0.650061    0.895376    11.741998    15.693563    28.193176    -18.510353    -8.465029    25.544283    7.553986    6.030199    3.743823    -22.881874    3.846013    -15.115644    5.119609    19.003805    -6.683062    11.083553    19.280329    -0.065954    -7.992226    1.285999    8.909442    17.445288    -6.351446    1.917044    0.728214    12.091266    -2.402000    18.369154    12.156956    0.321100    2.589707    -1.953241    -11.863654    -0.836290    8.516264    -8.548055    -3.938027    -12.116859    2.139078    0.000000    0.000000    0.000000    -4.249608    -4.659913    15.292229    1.181792    22.817820    2.554452    -1.003595    -14.560417    -4.193463    0.000000    0.000000    0.000000    
-0.381820    0.883482    0.453357    2.691263    -2.780565    6.985437    -0.858962    1.167307    2.855299    -3.445771    0.744799    0.972458    11.562896    15.447497    28.169498    -18.439224    -8.498305    25.501907    7.397383    5.876063    3.926775    -22.991894    3.790812    -14.999871    5.122619    19.064322    -6.750525    11.023833    19.339413    -0.114213    -8.031611    1.083601    8.948610    17.518093    -6.136599    1.980370    0.591249    12.312300    -2.275287    17.939308    12.512117    1.221804    2.865776    -2.426048    -11.547482    -0.911207    8.469938    -9.314357    -4.040214    -11.976359    2.503968    0.000000    0.000000    0.000000    -4.008414    -5.057385    14.021390    0.750728    22.827112    3.367064    -0.981826    -14.392477    -4.703952    0.000000    0.000000    0.000000    
-0.385735    0.883460    0.450171    2.546673    -2.506585    7.239142    -0.568804    1.191399    3.094634    -3.607900    0.917270    1.060129    11.485093    15.132125    28.111591    -18.445620    -8.448548    25.412951    7.256691    5.763681    4.106945    -23.125731    3.775927    -14.895893    5.133922    18.970608    -6.799170    11.129292    19.242531    -0.178524    -7.942700    1.029710    9.071577    17.511591    -5.759502    2.019467    0.255239    12.113522    -1.919159    18.254404    12.246220    0.818359    3.011015    -3.128864    -10.898247    -0.552841    8.686875    -9.175797    -4.573971    -11.684425    1.540100    0.000000    0.000000    0.000000    -3.723976    -5.583198    12.748732    0.424400    22.839838    4.439665    -1.511236    -14.222217    -4.736278    0.000000    0.000000    0.000000    
-0.389775    0.883620    0.447007    2.315642    -2.256500    7.447636    -0.198233    1.213566    3.349664    -3.798375    1.080281    1.153356    11.503343    15.132010    28.085808    -18.688488    -8.780868    25.282761    7.147620    5.822292    4.250917    -23.279119    3.662703    -14.803870    5.138816    18.907906    -6.816974    10.992945    19.192602    -0.052767    -7.735598    -0.328494    9.452069    17.724789    -3.848540    1.368648    -0.201574    11.572539    -1.604754    18.013388    11.662364    0.596364    3.580330    -3.056572    -10.706161    -0.639385    7.858587    -14.734970    -3.379315    -12.006474    7.406760    0.000000    0.000000    0.000000    -3.455685    -6.109003    11.566791    0.277673    22.839401    5.463220    -1.845226    -13.970152    -4.771964    0.000000    0.000000    0.000000    
-0.393800    0.883840    0.443966    2.035788    -2.049846    7.660070    0.235341    1.242778    3.601149    -3.988707    1.272010    1.247258    11.573780    14.945227    28.011473    -18.865250    -8.766197    25.148466    7.008515    5.975842    4.405085    -23.407785    3.572670    -14.778428    5.099167    18.645296    -6.760426    10.894326    18.933281    0.029577    -7.716045    -0.109317    9.433403    17.908510    -3.338561    1.816960    -0.576852    11.215588    -1.616690    17.752037    11.354605    0.959881    3.901389    -4.115691    -10.209844    -0.445778    8.551828    -9.795869    -4.998291    -11.197213    1.412532    0.000000    0.000000    0.000000    -3.174412    -6.601525    10.247395    0.017799    22.856384    6.568017    -1.498990    -13.625628    -4.120295    0.000000    0.000000    0.000000    
-0.397848    0.884022    0.440951    1.738309    -1.905183    7.916572    0.650050    1.320078    3.829755    -4.115263    1.376983    1.330435    11.611139    14.518014    27.913691    -18.544567    -8.219357    25.150120    6.853741    6.239749    4.394620    -23.563028    3.410959    -14.669165    5.058664    18.510284    -6.612606    10.722158    18.799597    0.137893    -7.938835    1.499462    9.103410    18.754614    -1.171817    3.281032    -2.188473    9.481438    -2.020521    18.298754    9.753569    1.953174    4.419245    -4.499647    -9.965096    -0.437714    8.397301    -9.709763    -5.311210    -10.917920    1.040521    0.000000    0.000000    0.000000    -2.959056    -6.916956    8.809756    -0.048466    22.666927    7.391217    -1.416803    -13.285989    -3.811543    0.000000    0.000000    0.000000    
-0.401814    0.884213    0.438029    1.436468    -1.817460    8.203850    1.157403    1.453084    4.031452    -4.345061    1.537730    1.409070    11.679543    14.942505    27.774374    -19.237232    -8.958602    24.787073    6.681647    6.450858    4.501006    -23.629478    3.281450    -14.654075    4.930364    18.245796    -6.494980    10.988443    18.490637    -0.227865    -7.917652    1.628360    9.172456    17.210707    -8.096081    3.269986    1.071661    12.733228    -1.534241    16.913319    12.837789    0.624715    4.965992    -4.805350    -9.909357    -0.481260    8.186541    -9.453119    -5.595671    -10.615136    0.604624    0.000000    0.000000    0.000000    -2.770245    -7.100846    7.400211    -0.048069    22.370163    7.984740    -1.550854    -12.975209    -3.318896    0.000000    0.000000    0.000000    
-0.405586    0.884377    0.435481    1.147904    -1.698588    8.462137    1.677848    1.441690    4.278078    -4.600019    1.802984    1.507677    11.722797    14.993720    27.650328    -19.446909    -9.220582    24.573353    6.523878    6.658895    4.611432    -23.711229    3.169063    -14.692401    4.821723    18.070307    -6.324960    10.682593    18.309935    -0.153040    -7.869145    1.682013    9.157934    16.250256    -12.672557    3.498796    3.263132    14.938583    -1.736433    16.190542    14.959771    -0.193566    5.439638    -5.063016    -9.822172    -0.431289    7.932921    -9.465652    -5.852458    -10.397440    0.428363    0.000000    0.000000    0.000000    -2.606319    -7.221278    6.100401    -0.017778    21.968693    8.591227    -1.612355    -12.686341    -2.928502    0.000000    0.000000    0.000000    
-0.409353    0.884526    0.432754    0.904274    -1.618003    8.841836    2.167597    1.526782    4.446443    -4.879161    1.984385    1.578564    11.630960    14.637172    27.534576    -18.977026    -8.980369    24.550087    6.384735    6.788774    4.673822    -23.783619    3.003395    -14.664467    4.639923    17.855043    -6.171689    10.406008    18.089060    -0.046465    -7.781943    1.677731    9.113833    16.246300    -12.448374    3.862517    3.282485    14.907292    -1.715691    16.189411    14.926000    -0.209621    5.907959    -5.354402    -9.924167    -0.434769    7.730911    -9.638641    -6.138612    -10.186556    0.382065    0.000000    0.000000    0.000000    -2.457504    -7.227449    4.976767    0.066745    21.488293    9.036854    -1.674767    -12.400682    -2.679201    0.000000    0.000000    0.000000    
-0.412994    0.884660    0.430140    0.699039    -1.529219    9.283898    2.653466    1.675235    4.511747    -5.225545    1.986621    1.609951    11.763095    15.230102    27.388588    -19.628456    -9.752586    24.194080    6.278997    6.996011    4.877532    -23.853149    2.937772    -14.697493    4.503096    17.685537    -6.021421    9.990632    17.917484    0.076171    -7.759370    2.109997    9.595298    15.824010    -13.461540    3.108962    3.693602    15.163820    -0.552579    16.050749    15.038046    -1.050375    6.424543    -5.507322    -10.429098    -0.687369    7.306240    -9.705986    -6.068902    -10.024411    0.854987    0.000000    0.000000    0.000000    -2.120678    -7.337674    3.721317    -0.214443    21.204508    9.351611    -1.719215    -12.112651    -2.236114    0.000000    0.000000    0.000000    
